<svg xmlns="http://www.w3.org/2000/svg" viewBox="0 0 200 200" width="200" height="200">
  <rect x="20" y="120" width="160" height="2" rx="1" fill="#E2E8F0"/>
  <rect x="20" y="100" width="160" height="2" rx="1" fill="#E2E8F0"/>
  <rect x="20" y="80" width="160" height="2" rx="1" fill="#E2E8F0"/>
  <rect x="20" y="60" width="160" height="2" rx="1" fill="#E2E8F0"/>
  <polyline points="30,130 65,90 100,105 140,60 170,45" fill="none" stroke="#0EA5E9" stroke-width="3" stroke-linecap="round" stroke-linejoin="round"/>
  <circle cx="30" cy="130" r="5" fill="#0EA5E9"/>
  <circle cx="65" cy="90" r="5" fill="#0EA5E9"/>
  <circle cx="100" cy="105" r="5" fill="#0EA5E9"/>
  <circle cx="140" cy="60" r="5" fill="#0EA5E9"/>
  <circle cx="170" cy="45" r="7" fill="#0F172A"/>
  <rect x="20" y="138" width="160" height="2" rx="1" fill="#0F172A" opacity="0.15"/>
  <rect x="18" y="40" width="2" height="100" rx="1" fill="#0F172A" opacity="0.15"/>
  <polygon points="170,32 175,50 165,50" fill="#0F172A" opacity="0.4"/>
  <text x="100" y="175" text-anchor="middle" font-family="system-ui,sans-serif" font-size="13" font-weight="600" fill="#64748B">Approach</text>
</svg>